<svg xmlns="http://www.w3.org/2000/svg" xmlns:xlink="http://www.w3.org/1999/xlink" width="500" zoomAndPan="magnify" viewBox="0 0 375 374.999991" height="500" preserveAspectRatio="xMidYMid meet" version="1.0"><path fill="#2f4faa" d="M 199.527344 256.683594 C 205.199219 256.9375 210.066406 253.515625 212.015625 248.632812 C 212.800781 246.664062 214.640625 245.324219 216.753906 245.277344 L 229.359375 244.996094 C 231.695312 244.941406 233.816406 246.4375 234.46875 248.683594 C 236.609375 256 242.53125 261.664062 249.933594 263.476562 C 252.207031 264.03125 253.792969 266.082031 253.847656 268.421875 L 254.242188 286.148438 C 254.28125 287.960938 253.371094 289.648438 251.855469 290.636719 C 249.425781 292.222656 247.910156 295.074219 248.226562 298.230469 C 248.625 302.183594 251.925781 305.300781 255.894531 305.46875 C 260.605469 305.671875 264.429688 301.859375 264.328125 297.222656 C 264.261719 294.332031 262.683594 291.832031 260.371094 290.457031 C 258.820312 289.535156 257.804688 287.921875 257.765625 286.113281 L 257.367188 268.3125 C 257.3125 265.949219 258.867188 263.875 261.132812 263.203125 C 270.167969 260.523438 276.667969 252.058594 276.449219 242.175781 C 276.375 238.867188 275.554688 235.753906 274.152344 232.984375 C 273.082031 230.875 273.511719 228.316406 275.269531 226.730469 L 283.796875 219.074219 C 285.394531 217.640625 287.722656 217.308594 289.617188 218.308594 C 295.058594 221.183594 301.972656 220.4375 306.695312 215.871094 C 312.175781 210.570312 312.652344 201.8125 307.789062 195.945312 C 302.433594 189.492188 292.847656 188.835938 286.664062 194.382812 C 281.972656 198.597656 280.632812 205.152344 282.808594 210.695312 C 283.601562 212.710938 283.054688 215.003906 281.445312 216.453125 L 272.898438 224.128906 C 271.144531 225.703125 268.5625 225.878906 266.582031 224.609375 C 263.117188 222.382812 258.976562 221.128906 254.550781 221.230469 C 244.671875 221.449219 236.511719 228.328125 234.242188 237.480469 C 233.671875 239.773438 231.667969 241.417969 229.308594 241.472656 L 216.675781 241.753906 C 214.589844 241.800781 212.671875 240.597656 211.824219 238.6875 C 209.789062 234.109375 205.15625 230.964844 199.835938 231.082031 C 192.597656 231.242188 186.898438 237.382812 187.339844 244.675781 C 187.734375 251.164062 193.039062 256.394531 199.527344 256.683594 " fill-opacity="1" fill-rule="nonzero"/><path fill="#26cdd1" d="M 133.726562 232.523438 C 136.34375 237.566406 141.742188 240.074219 146.941406 239.320312 C 149.035156 239.015625 151.117188 239.9375 152.214844 241.746094 L 158.757812 252.527344 C 159.972656 254.523438 159.738281 257.109375 158.125 258.800781 C 152.859375 264.308594 150.914062 272.277344 153.050781 279.59375 C 153.707031 281.835938 152.722656 284.242188 150.726562 285.457031 L 135.578125 294.664062 C 134.03125 295.605469 132.113281 295.65625 130.5 294.835938 C 127.914062 293.527344 124.6875 293.636719 122.113281 295.492188 C 118.890625 297.8125 117.84375 302.234375 119.679688 305.753906 C 121.859375 309.9375 127.074219 311.34375 131.035156 308.9375 C 133.503906 307.433594 134.878906 304.820312 134.914062 302.128906 C 134.933594 300.320312 135.828125 298.636719 137.371094 297.699219 L 152.582031 288.449219 C 154.597656 287.226562 157.171875 287.53125 158.886719 289.160156 C 165.722656 295.648438 176.300781 297.050781 184.746094 291.917969 C 187.570312 290.199219 189.859375 287.929688 191.554688 285.332031 C 192.84375 283.347656 195.277344 282.441406 197.523438 283.175781 L 208.417969 286.734375 C 210.457031 287.398438 211.910156 289.25 211.992188 291.394531 C 212.222656 297.542969 216.328125 303.164062 222.640625 304.96875 C 229.964844 307.066406 237.789062 303.105469 240.433594 295.957031 C 243.34375 288.089844 239.117188 279.453125 231.222656 276.871094 C 225.230469 274.914062 218.886719 277.027344 215.175781 281.6875 C 213.828125 283.382812 211.570312 284.054688 209.511719 283.382812 L 198.589844 279.816406 C 196.351562 279.085938 194.910156 276.9375 195.019531 274.582031 C 195.214844 270.46875 194.226562 266.253906 191.929688 262.46875 C 186.796875 254.019531 176.765625 250.386719 167.707031 253 C 165.4375 253.652344 163.011719 252.738281 161.785156 250.71875 L 155.222656 239.917969 C 154.140625 238.132812 154.222656 235.867188 155.453125 234.179688 C 158.398438 230.128906 158.804688 224.539062 156.042969 219.988281 C 152.285156 213.800781 144.121094 211.929688 138.027344 215.960938 C 132.609375 219.546875 130.730469 226.757812 133.726562 232.523438 " fill-opacity="1" fill-rule="nonzero"/><path fill="#2f4faa" d="M 121.738281 163.429688 C 118.683594 168.222656 119.210938 174.152344 122.464844 178.277344 C 123.773438 179.941406 124.015625 182.207031 123 184.0625 L 116.941406 195.121094 C 115.820312 197.175781 113.464844 198.261719 111.191406 197.710938 C 103.789062 195.902344 95.925781 198.199219 90.660156 203.710938 C 89.042969 205.398438 86.472656 205.75 84.421875 204.628906 L 68.875 196.109375 C 67.289062 195.238281 66.285156 193.601562 66.1875 191.792969 C 66.027344 188.898438 64.316406 186.15625 61.425781 184.851562 C 57.804688 183.222656 53.457031 184.527344 51.324219 187.878906 C 48.796875 191.859375 50.183594 197.078125 54.25 199.304688 C 56.785156 200.695312 59.734375 200.582031 62.082031 199.265625 C 63.65625 198.378906 65.5625 198.308594 67.144531 199.175781 L 82.753906 207.730469 C 84.824219 208.867188 85.847656 211.25 85.296875 213.546875 C 83.09375 222.71875 87.171875 232.582031 95.835938 237.332031 C 98.738281 238.921875 101.84375 239.769531 104.941406 239.9375 C 107.304688 240.066406 109.304688 241.71875 109.792969 244.035156 L 112.160156 255.25 C 112.605469 257.351562 111.726562 259.535156 109.914062 260.679688 C 104.707031 263.953125 101.890625 270.320312 103.484375 276.695312 C 105.335938 284.089844 112.675781 288.882812 120.183594 287.601562 C 128.449219 286.191406 133.8125 278.210938 132.097656 270.082031 C 130.796875 263.90625 125.796875 259.46875 119.90625 258.585938 C 117.765625 258.265625 116.054688 256.644531 115.605469 254.527344 L 113.234375 243.277344 C 112.746094 240.972656 113.886719 238.648438 115.980469 237.570312 C 119.636719 235.679688 122.792969 232.71875 124.917969 228.832031 C 129.667969 220.164062 127.792969 209.652344 121.003906 203.109375 C 119.304688 201.472656 118.882812 198.914062 120.015625 196.839844 L 126.089844 185.753906 C 127.089844 183.921875 129.09375 182.867188 131.167969 183.085938 C 136.152344 183.613281 141.191406 181.171875 143.75 176.5 C 147.226562 170.148438 144.761719 162.144531 138.226562 158.878906 C 132.414062 155.976562 125.234375 157.953125 121.738281 163.429688 " fill-opacity="1" fill-rule="nonzero"/><path fill="#26cdd1" d="M 175.554688 118.5 C 169.878906 118.246094 165.011719 121.667969 163.066406 126.550781 C 162.28125 128.519531 160.441406 129.859375 158.324219 129.90625 L 145.722656 130.1875 C 143.386719 130.242188 141.265625 128.746094 140.609375 126.5 C 138.472656 119.183594 132.550781 113.519531 125.148438 111.707031 C 122.875 111.15625 121.289062 109.101562 121.234375 106.765625 L 120.839844 89.035156 C 120.796875 87.226562 121.710938 85.535156 123.226562 84.546875 C 125.65625 82.964844 127.171875 80.113281 126.851562 76.953125 C 126.457031 73 123.152344 69.882812 119.183594 69.714844 C 114.476562 69.511719 110.652344 73.324219 110.757812 77.960938 C 110.820312 80.851562 112.394531 83.351562 114.710938 84.726562 C 116.261719 85.648438 117.277344 87.265625 117.316406 89.070312 L 117.714844 106.871094 C 117.769531 109.234375 116.214844 111.308594 113.949219 111.984375 C 104.914062 114.660156 98.410156 123.125 98.632812 133.007812 C 98.707031 136.316406 99.527344 139.429688 100.929688 142.199219 C 102 144.308594 101.570312 146.871094 99.808594 148.453125 L 91.285156 156.109375 C 89.6875 157.542969 87.359375 157.875 85.460938 156.875 C 80.023438 154 73.105469 154.746094 68.386719 159.316406 C 62.910156 164.613281 62.425781 173.371094 67.292969 179.238281 C 72.648438 185.691406 82.234375 186.351562 88.414062 180.800781 C 93.109375 176.585938 94.453125 170.035156 92.269531 164.488281 C 91.476562 162.472656 92.027344 160.179688 93.636719 158.734375 L 102.183594 151.054688 C 103.9375 149.480469 106.515625 149.304688 108.5 150.578125 C 111.964844 152.800781 116.105469 154.054688 120.53125 153.957031 C 130.410156 153.734375 138.570312 146.855469 140.839844 137.703125 C 141.410156 135.410156 143.414062 133.765625 145.773438 133.710938 L 158.40625 133.429688 C 160.492188 133.382812 162.410156 134.589844 163.257812 136.496094 C 165.292969 141.074219 169.925781 144.222656 175.246094 144.101562 C 182.480469 143.941406 188.183594 137.804688 187.742188 130.507812 C 187.347656 124.023438 182.042969 118.789062 175.554688 118.5 " fill-opacity="1" fill-rule="nonzero"/><path fill="#2f4faa" d="M 241.355469 142.660156 C 238.734375 137.617188 233.339844 135.113281 228.140625 135.867188 C 226.046875 136.167969 223.964844 135.246094 222.867188 133.4375 L 216.320312 122.660156 C 215.109375 120.664062 215.339844 118.074219 216.957031 116.382812 C 222.222656 110.875 224.164062 102.910156 222.03125 95.59375 C 221.375 93.347656 222.355469 90.945312 224.355469 89.730469 L 239.503906 80.523438 C 241.050781 79.582031 242.96875 79.53125 244.582031 80.347656 C 247.167969 81.660156 250.394531 81.546875 252.96875 79.691406 C 256.191406 77.371094 257.238281 72.953125 255.398438 69.429688 C 253.222656 65.25 248.007812 63.839844 244.046875 66.25 C 241.578125 67.75 240.199219 70.363281 240.167969 73.058594 C 240.144531 74.863281 239.253906 76.550781 237.710938 77.488281 L 222.5 86.734375 C 220.480469 87.960938 217.90625 87.652344 216.195312 86.027344 C 209.359375 79.535156 198.777344 78.132812 190.335938 83.269531 C 187.507812 84.988281 185.222656 87.253906 183.527344 89.851562 C 182.234375 91.835938 179.804688 92.746094 177.554688 92.011719 L 166.664062 88.453125 C 164.625 87.785156 163.171875 85.9375 163.089844 83.792969 C 162.859375 77.644531 158.753906 72.019531 152.4375 70.214844 C 145.113281 68.117188 137.292969 72.082031 134.648438 79.230469 C 131.738281 87.097656 135.960938 95.730469 143.859375 98.3125 C 149.851562 100.269531 156.195312 98.15625 159.90625 93.496094 C 161.253906 91.800781 163.511719 91.128906 165.570312 91.800781 L 176.488281 95.367188 C 178.730469 96.101562 180.171875 98.246094 180.0625 100.601562 C 179.867188 104.71875 180.851562 108.929688 183.152344 112.714844 C 188.28125 121.164062 198.316406 124.796875 207.375 122.1875 C 209.640625 121.53125 212.070312 122.445312 213.296875 124.464844 L 219.855469 135.269531 C 220.941406 137.054688 220.855469 139.316406 219.628906 141.003906 C 216.683594 145.058594 216.273438 150.644531 219.035156 155.195312 C 222.796875 161.382812 230.960938 163.253906 237.050781 159.222656 C 242.472656 155.640625 244.351562 148.425781 241.355469 142.660156 " fill-opacity="1" fill-rule="nonzero"/><path fill="#26cdd1" d="M 320.832031 175.878906 C 318.296875 174.492188 315.34375 174.605469 313 175.921875 C 311.421875 176.808594 309.519531 176.878906 307.933594 176.007812 L 292.324219 167.453125 C 290.253906 166.320312 289.234375 163.933594 289.785156 161.636719 C 291.984375 152.46875 287.90625 142.601562 279.242188 137.851562 C 276.339844 136.261719 273.234375 135.414062 270.140625 135.246094 C 267.773438 135.121094 265.773438 133.46875 265.285156 131.152344 L 262.921875 119.933594 C 262.476562 117.835938 263.351562 115.652344 265.167969 114.507812 C 270.375 111.234375 273.1875 104.867188 271.59375 98.492188 C 269.746094 91.097656 262.40625 86.300781 254.894531 87.585938 C 246.632812 88.996094 241.269531 96.972656 242.984375 105.105469 C 244.28125 111.277344 249.285156 115.71875 255.171875 116.601562 C 257.3125 116.921875 259.027344 118.542969 259.472656 120.660156 L 261.84375 131.90625 C 262.332031 134.210938 261.195312 136.535156 259.101562 137.617188 C 255.441406 139.507812 252.285156 142.46875 250.160156 146.351562 C 245.414062 155.019531 247.285156 165.53125 254.074219 172.074219 C 255.773438 173.714844 256.195312 176.273438 255.0625 178.34375 L 248.992188 189.433594 C 247.988281 191.261719 245.984375 192.320312 243.910156 192.101562 C 238.929688 191.574219 233.886719 194.015625 231.332031 198.6875 C 227.855469 205.035156 230.316406 213.042969 236.851562 216.304688 C 242.664062 219.210938 249.847656 217.234375 253.34375 211.753906 C 256.398438 206.960938 255.867188 201.035156 252.617188 196.90625 C 251.304688 195.246094 251.066406 192.980469 252.078125 191.121094 L 258.136719 180.0625 C 259.261719 178.011719 261.613281 176.921875 263.886719 177.476562 C 271.289062 179.28125 279.15625 176.984375 284.421875 171.476562 C 286.035156 169.785156 288.609375 169.433594 290.660156 170.558594 L 306.203125 179.078125 C 307.792969 179.949219 308.796875 181.585938 308.894531 183.394531 C 309.050781 186.289062 310.761719 189.027344 313.65625 190.332031 C 317.277344 191.964844 321.621094 190.660156 323.753906 187.308594 C 326.285156 183.328125 324.894531 178.109375 320.832031 175.878906 " fill-opacity="1" fill-rule="nonzero"/></svg>